<svg id="svg" version="1.1" xmlns="http://www.w3.org/2000/svg" xmlns:xlink="http://www.w3.org/1999/xlink" width="400" height="282.84900284900283" viewBox="0, 0, 400,282.84900284900283"><g id="svgg"><path id="path0" d="M159.383 81.628 C 158.710 83.074,158.042 84.571,157.505 85.833 C 157.213 86.521,156.598 87.863,156.138 88.816 C 155.128 90.913,155.007 90.572,157.778 93.434 L 159.860 95.583 162.112 93.251 C 164.719 90.552,164.639 90.831,163.498 88.403 C 161.376 83.889,160.830 82.684,160.561 81.931 C 160.096 80.625,159.876 80.568,159.383 81.628 M141.919 89.509 C 142.052 90.118,142.672 91.458,143.263 92.417 C 143.489 92.783,143.723 93.196,143.784 93.333 C 143.889 93.571,146.515 97.565,146.798 97.917 C 146.871 98.008,147.116 98.346,147.341 98.667 C 147.566 98.987,147.844 99.310,147.958 99.383 C 148.073 99.457,148.168 99.607,148.169 99.717 C 148.171 99.935,148.142 99.896,150.353 102.658 C 153.051 106.028,153.287 106.225,154.833 106.401 C 155.337 106.459,156.050 106.546,156.417 106.595 C 159.206 106.969,162.761 106.891,165.333 106.399 C 166.123 106.248,166.295 106.110,167.494 104.666 C 168.065 103.979,168.695 103.229,168.895 103.000 C 169.742 102.025,172.460 98.523,172.903 97.833 C 173.168 97.421,173.523 96.896,173.692 96.667 C 174.476 95.605,175.851 93.460,176.524 92.250 C 177.159 91.107,177.414 90.563,177.956 89.199 C 178.054 88.953,174.926 88.931,173.412 89.168 C 172.956 89.239,172.229 89.345,171.796 89.403 C 168.938 89.785,166.920 91.159,164.308 94.500 C 163.914 95.004,163.546 95.454,163.491 95.500 C 163.435 95.546,162.762 96.446,161.995 97.500 C 159.794 100.526,160.086 100.456,158.524 98.333 C 158.019 97.646,157.562 97.046,157.511 97.000 C 157.459 96.954,157.158 96.542,156.842 96.083 C 156.526 95.625,156.225 95.212,156.174 95.167 C 156.123 95.121,155.758 94.648,155.362 94.116 C 154.479 92.929,152.456 90.833,152.193 90.833 C 152.087 90.833,152.000 90.769,152.000 90.689 C 152.000 89.959,147.434 89.041,143.610 89.002 L 141.803 88.983 141.919 89.509 M132.463 93.167 L 130.677 93.250 130.914 93.667 C 131.045 93.896,131.223 94.236,131.309 94.423 C 131.395 94.610,131.960 95.572,132.566 96.561 C 133.171 97.550,133.667 98.428,133.667 98.513 C 133.667 98.597,133.723 98.667,133.792 98.667 C 133.860 98.667,134.138 99.061,134.408 99.542 C 134.678 100.023,135.552 101.429,136.351 102.667 C 137.150 103.904,138.082 105.348,138.422 105.875 C 138.957 106.703,139.112 106.834,139.562 106.836 C 139.849 106.838,141.934 106.886,144.196 106.942 C 149.452 107.073,149.226 107.190,147.882 105.038 C 147.580 104.555,147.333 104.130,147.333 104.093 C 147.333 103.980,145.639 101.281,145.224 100.734 C 145.009 100.451,144.833 100.171,144.833 100.113 C 144.833 100.055,144.360 99.275,143.782 98.379 C 143.204 97.483,142.547 96.412,142.324 96.000 C 142.100 95.587,141.875 95.212,141.825 95.167 C 141.774 95.121,141.572 94.818,141.375 94.494 C 141.178 94.170,140.843 93.703,140.631 93.455 L 140.244 93.005 137.247 93.044 C 135.599 93.066,133.446 93.121,132.463 93.167 M178.010 94.870 C 177.339 95.904,176.575 97.062,176.312 97.444 C 176.049 97.826,175.833 98.199,175.833 98.274 C 175.833 98.479,174.789 100.192,172.801 103.250 C 170.109 107.389,169.830 107.000,175.486 107.000 C 180.857 107.000,180.502 107.070,181.206 105.881 C 181.505 105.376,181.900 104.721,182.083 104.427 C 182.267 104.132,182.679 103.464,183.000 102.942 C 183.321 102.420,184.033 101.307,184.583 100.468 C 185.133 99.630,185.771 98.633,186.000 98.252 C 186.229 97.871,186.640 97.190,186.912 96.738 C 187.184 96.286,187.469 95.842,187.544 95.750 C 188.764 94.265,189.078 93.173,188.292 93.152 C 187.994 93.145,185.833 93.105,183.490 93.064 L 179.230 92.990 178.010 94.870 M120.801 98.542 C 122.043 100.588,124.714 105.102,124.991 105.621 C 125.783 107.109,125.282 107.000,131.318 107.000 C 134.260 107.000,136.666 106.944,136.665 106.875 C 136.661 106.630,135.876 105.395,134.785 103.917 C 134.177 103.092,133.522 102.192,133.330 101.917 C 133.138 101.642,132.704 101.037,132.365 100.573 C 132.027 100.109,131.600 99.520,131.417 99.265 C 131.233 99.009,130.947 98.619,130.780 98.400 L 130.476 98.000 125.474 98.000 L 120.473 98.000 120.801 98.542 M189.158 99.042 C 188.760 99.615,188.385 100.121,188.324 100.167 C 188.263 100.212,187.520 101.263,186.671 102.500 C 185.823 103.737,185.076 104.787,185.011 104.833 C 184.744 105.024,183.833 106.497,183.833 106.738 C 183.833 106.971,184.431 107.000,189.164 107.000 L 194.495 107.000 194.954 106.292 C 195.207 105.902,195.477 105.537,195.554 105.481 C 195.632 105.425,195.699 105.313,195.703 105.231 C 195.707 105.150,195.989 104.671,196.329 104.167 C 197.246 102.808,199.833 98.388,199.833 98.180 C 199.833 98.055,198.307 98.000,194.857 98.000 L 189.882 98.000 189.158 99.042 M200.750 111.259 C 200.108 111.377,198.897 111.705,198.059 111.987 C 197.220 112.269,196.459 112.500,196.366 112.500 C 195.654 112.500,189.027 116.176,188.030 117.124 C 187.909 117.239,187.745 117.333,187.667 117.333 C 187.588 117.333,187.425 117.430,187.304 117.548 C 187.182 117.665,186.727 118.016,186.292 118.326 C 185.856 118.636,185.500 118.965,185.500 119.056 C 185.500 119.147,185.455 119.177,185.400 119.122 C 185.344 119.067,185.002 119.324,184.640 119.694 L 183.980 120.367 182.198 119.948 C 181.218 119.718,178.767 119.104,176.750 118.583 C 174.733 118.062,172.746 117.568,172.333 117.484 C 171.921 117.399,170.833 117.137,169.917 116.900 C 169.000 116.663,168.109 116.441,167.937 116.407 C 167.765 116.372,166.978 116.189,166.187 116.000 C 163.686 115.400,163.442 115.344,162.250 115.102 C 161.608 114.971,160.521 114.740,159.833 114.588 C 158.558 114.306,158.051 114.211,155.417 113.765 C 152.323 113.241,150.014 112.906,148.833 112.811 C 147.335 112.690,141.501 112.809,140.637 112.979 C 140.149 113.074,139.487 113.193,139.167 113.243 C 138.846 113.293,138.283 113.411,137.917 113.506 C 137.550 113.600,137.063 113.715,136.833 113.761 C 135.277 114.075,132.792 115.117,129.372 116.888 C 129.048 117.056,128.677 117.299,128.546 117.430 C 128.416 117.560,128.250 117.667,128.177 117.667 C 127.671 117.667,123.513 121.212,122.000 122.932 C 120.141 125.045,118.407 127.814,117.677 129.833 C 117.561 130.154,117.403 130.567,117.326 130.750 C 115.338 135.482,116.553 142.298,120.015 145.833 C 121.761 147.616,124.582 149.500,125.504 149.500 C 125.674 149.500,125.854 149.565,125.903 149.644 C 125.952 149.724,126.237 149.833,126.538 149.888 C 126.838 149.943,127.608 150.104,128.250 150.244 C 130.681 150.777,134.008 150.431,136.917 149.342 C 141.390 147.667,147.520 142.378,150.775 137.385 C 151.692 135.979,151.711 135.947,152.161 135.148 C 152.387 134.746,152.660 134.267,152.768 134.083 C 154.200 131.654,155.385 128.690,156.268 125.333 C 157.471 120.760,156.515 117.497,155.180 121.620 C 154.630 123.321,152.822 127.180,151.901 128.619 C 151.589 129.107,151.333 129.546,151.333 129.594 C 151.333 129.642,151.254 129.771,151.157 129.882 C 151.060 129.993,150.836 130.308,150.659 130.583 C 149.889 131.782,149.753 131.978,149.411 132.381 C 149.316 132.492,149.058 132.846,148.837 133.167 C 147.469 135.150,143.231 139.687,141.441 141.083 C 141.088 141.358,140.713 141.662,140.608 141.758 C 140.503 141.854,140.042 142.187,139.583 142.498 C 139.125 142.809,138.725 143.125,138.694 143.199 C 138.664 143.273,138.533 143.333,138.403 143.333 C 138.273 143.333,138.167 143.404,138.167 143.490 C 138.167 143.680,134.048 145.725,133.000 146.056 C 128.874 147.356,125.841 147.198,123.125 145.543 C 122.781 145.334,122.500 145.198,122.500 145.242 C 122.500 145.659,120.051 142.563,119.541 141.500 C 118.616 139.575,118.113 135.206,118.652 133.787 C 118.736 133.567,118.844 133.168,118.891 132.901 C 119.110 131.670,120.698 128.011,121.428 127.054 C 121.651 126.762,121.833 126.442,121.833 126.344 C 121.833 126.247,121.892 126.167,121.964 126.167 C 122.036 126.167,122.236 125.927,122.409 125.634 C 123.006 124.624,126.546 121.215,128.083 120.171 C 128.542 119.860,128.954 119.554,129.000 119.491 C 129.356 119.006,134.176 116.690,135.625 116.309 C 135.923 116.231,136.448 116.092,136.792 116.000 C 139.087 115.390,143.524 114.889,145.067 115.065 C 145.534 115.119,146.704 115.207,147.667 115.262 C 148.629 115.316,149.717 115.421,150.083 115.495 C 150.450 115.569,150.871 115.626,151.018 115.620 C 151.166 115.615,151.766 115.702,152.351 115.813 C 152.937 115.924,153.810 116.087,154.292 116.174 C 156.409 116.559,157.121 116.700,157.687 116.845 C 158.337 117.012,159.875 117.333,160.417 117.415 C 161.444 117.569,165.967 118.805,166.250 119.008 C 166.342 119.074,166.679 119.180,167.000 119.244 C 167.321 119.308,168.033 119.506,168.583 119.684 C 169.821 120.084,170.219 120.198,172.000 120.663 C 172.779 120.866,173.567 121.102,173.750 121.186 C 173.933 121.271,174.255 121.373,174.466 121.412 C 174.676 121.451,175.088 121.561,175.382 121.655 C 175.676 121.749,176.442 121.972,177.083 122.150 C 179.254 122.753,180.249 123.046,180.382 123.121 C 180.528 123.203,180.161 123.600,176.749 127.054 C 174.425 129.406,174.169 129.683,172.583 131.579 C 172.125 132.126,171.590 132.763,171.394 132.995 C 170.414 134.154,169.192 135.622,168.696 136.233 C 168.392 136.609,167.979 137.104,167.780 137.334 C 167.580 137.563,167.042 138.201,166.583 138.751 C 166.125 139.300,165.710 139.787,165.661 139.833 C 165.612 139.879,165.275 140.292,164.911 140.750 C 164.547 141.208,164.210 141.621,164.161 141.667 C 164.112 141.712,163.775 142.125,163.411 142.583 C 163.047 143.041,162.655 143.517,162.539 143.639 C 162.423 143.762,162.123 144.137,161.872 144.473 C 161.622 144.808,161.280 145.233,161.112 145.417 C 160.945 145.600,160.685 145.956,160.535 146.208 C 160.384 146.460,160.198 146.667,160.121 146.667 C 160.044 146.667,160.027 146.742,160.083 146.833 C 160.140 146.925,160.116 147.000,160.030 147.000 C 159.944 147.000,159.571 147.401,159.201 147.890 C 158.832 148.380,158.429 148.886,158.306 149.015 C 158.184 149.144,157.860 149.550,157.587 149.917 C 157.315 150.283,156.940 150.748,156.754 150.950 C 156.334 151.407,156.253 151.507,155.240 152.813 L 154.417 153.874 153.333 153.769 C 145.251 152.983,140.839 152.961,135.417 153.682 C 133.998 153.870,130.362 154.592,129.667 154.823 C 129.438 154.899,128.950 155.044,128.583 155.146 C 127.393 155.476,124.840 156.315,124.288 156.558 C 123.992 156.688,123.487 156.891,123.167 157.010 C 121.915 157.472,119.313 158.695,118.241 159.325 C 117.172 159.952,117.117 159.934,116.348 158.711 C 115.051 156.649,112.260 155.333,109.181 155.333 C 107.383 155.333,102.216 156.557,102.028 157.028 C 101.997 157.104,101.868 157.167,101.741 157.167 C 100.994 157.167,96.685 160.211,95.162 161.815 C 94.537 162.473,93.002 164.477,92.658 165.083 C 89.689 170.316,89.074 173.896,90.369 178.417 C 90.681 179.504,92.088 182.327,92.487 182.667 C 92.541 182.713,92.805 183.050,93.073 183.417 C 94.630 185.542,98.967 188.608,101.083 189.079 C 101.267 189.120,101.740 189.270,102.136 189.413 C 106.542 191.003,114.432 190.833,121.395 188.997 C 124.072 188.292,128.977 186.516,129.513 186.058 C 129.658 185.934,129.845 185.832,129.930 185.831 C 130.188 185.827,133.191 184.275,134.212 183.619 C 134.740 183.278,135.202 183.000,135.237 183.000 C 135.650 183.000,140.464 179.641,142.583 177.873 C 146.702 174.440,149.384 171.797,152.686 167.922 C 152.996 167.558,153.636 166.845,154.108 166.338 C 154.580 165.831,155.288 165.004,155.680 164.500 C 156.073 163.996,156.441 163.546,156.497 163.500 C 156.554 163.454,156.999 162.929,157.485 162.333 C 157.972 161.737,158.643 160.919,158.976 160.514 C 159.310 160.109,159.965 159.284,160.430 158.681 C 161.384 157.446,161.143 157.506,163.833 157.825 C 164.796 157.940,166.122 158.084,166.781 158.145 C 168.383 158.295,168.403 158.148,166.412 160.767 C 165.444 162.041,164.341 163.496,163.962 164.000 C 163.583 164.504,163.221 164.954,163.157 165.000 C 163.093 165.046,162.757 165.458,162.411 165.917 C 162.064 166.375,161.736 166.787,161.682 166.833 C 161.628 166.879,161.284 167.292,160.918 167.750 C 160.159 168.699,159.698 169.246,158.750 170.321 C 158.117 171.039,157.673 171.484,156.042 173.035 C 155.652 173.406,155.333 173.859,155.333 174.043 C 155.333 175.100,159.300 173.146,163.167 170.184 C 165.940 168.059,169.582 164.335,171.170 162.000 C 171.389 161.679,171.608 161.379,171.659 161.333 C 171.709 161.287,172.049 160.875,172.415 160.417 C 172.781 159.958,173.299 159.340,173.567 159.042 L 174.054 158.500 176.036 158.500 C 177.127 158.500,178.371 158.423,178.801 158.329 C 179.231 158.234,179.958 158.078,180.417 157.981 C 186.320 156.734,189.191 151.517,185.347 149.023 C 183.944 148.113,179.450 148.312,178.500 149.328 C 178.454 149.377,178.117 149.567,177.750 149.750 C 177.383 149.933,177.008 150.140,176.917 150.209 C 176.825 150.278,176.262 150.646,175.667 151.027 C 175.071 151.408,173.627 152.683,172.457 153.860 L 170.331 156.000 169.359 156.000 C 168.825 156.000,167.644 155.885,166.735 155.745 C 165.827 155.604,164.725 155.443,164.287 155.387 C 163.370 155.270,163.225 155.135,163.570 154.716 C 163.706 154.551,164.285 153.779,164.856 153.000 C 165.427 152.221,165.937 151.546,165.990 151.500 C 166.042 151.454,166.475 150.877,166.950 150.218 C 167.425 149.559,167.937 148.884,168.087 148.718 C 168.237 148.552,168.753 147.884,169.234 147.232 C 169.715 146.581,170.198 145.943,170.307 145.815 C 170.416 145.688,171.015 144.908,171.638 144.083 C 173.300 141.882,176.222 138.096,176.332 138.000 C 176.385 137.954,176.725 137.504,177.088 137.000 C 177.801 136.011,178.131 135.588,178.458 135.243 C 178.573 135.123,178.667 134.950,178.667 134.859 C 178.667 134.769,178.726 134.669,178.798 134.639 C 178.869 134.608,179.449 133.908,180.085 133.083 C 180.720 132.258,181.283 131.546,181.334 131.500 C 181.386 131.454,181.725 131.042,182.089 130.583 C 182.453 130.125,182.787 129.712,182.833 129.667 C 182.879 129.621,183.512 128.833,184.239 127.917 C 184.966 127.000,185.644 126.175,185.745 126.083 C 185.846 125.992,186.102 125.669,186.315 125.367 C 186.754 124.742,186.761 124.742,189.833 125.327 C 190.704 125.492,191.904 125.713,192.500 125.817 C 194.305 126.131,197.524 126.356,198.558 126.240 C 199.094 126.179,199.956 126.116,200.475 126.098 C 205.355 125.930,210.447 123.262,212.035 120.039 C 213.727 116.605,211.721 112.236,208.167 111.614 C 207.846 111.557,207.058 111.396,206.417 111.256 C 205.032 110.952,202.407 110.954,200.750 111.259 M243.348 111.306 C 243.260 111.470,243.068 112.122,242.921 112.755 C 242.562 114.304,238.975 120.930,238.006 121.833 C 237.957 121.879,237.791 122.140,237.637 122.414 C 237.262 123.081,232.972 129.337,232.708 129.601 C 232.594 129.716,232.499 129.871,232.498 129.946 C 232.497 130.022,232.235 130.413,231.915 130.815 C 231.595 131.218,231.333 131.597,231.333 131.659 C 231.333 131.720,231.201 131.916,231.039 132.094 C 230.877 132.271,230.374 132.942,229.921 133.583 C 229.468 134.225,228.434 135.650,227.623 136.750 C 226.811 137.850,226.021 138.923,225.865 139.136 C 224.796 140.597,224.289 141.283,224.116 141.503 C 224.006 141.643,223.696 142.055,223.425 142.420 C 223.155 142.785,222.888 143.121,222.831 143.167 C 222.774 143.212,222.475 143.625,222.167 144.083 C 221.858 144.542,221.562 144.954,221.509 145.000 C 221.455 145.046,220.963 145.683,220.414 146.417 C 219.866 147.150,219.373 147.787,219.319 147.833 C 219.265 147.879,218.782 148.517,218.246 149.250 C 217.710 149.983,217.228 150.621,217.175 150.667 C 217.123 150.712,216.546 151.462,215.894 152.333 C 215.243 153.204,214.231 154.525,213.646 155.268 C 213.062 156.011,212.396 156.867,212.167 157.171 C 211.938 157.475,211.525 158.002,211.250 158.343 C 210.975 158.683,210.305 159.538,209.761 160.241 C 209.217 160.945,208.632 161.681,208.462 161.878 C 208.291 162.074,207.999 162.482,207.812 162.784 C 207.626 163.086,207.420 163.333,207.356 163.333 C 207.291 163.333,207.107 163.556,206.947 163.827 C 206.786 164.099,206.564 164.418,206.452 164.536 C 206.341 164.654,206.026 165.050,205.752 165.417 C 204.004 167.758,198.948 172.893,195.741 175.581 C 195.196 176.039,194.664 176.489,194.559 176.581 C 194.454 176.674,194.123 176.938,193.823 177.167 C 193.522 177.396,193.099 177.752,192.881 177.958 C 192.663 178.165,192.445 178.333,192.397 178.333 C 192.349 178.333,192.205 178.427,192.077 178.542 C 191.630 178.943,191.403 179.106,189.570 180.349 C 188.554 181.038,187.204 181.860,186.570 182.176 C 185.936 182.492,185.362 182.825,185.294 182.917 C 185.227 183.008,185.171 183.026,185.169 182.956 C 185.168 182.886,184.910 182.936,184.595 183.068 C 184.281 183.199,183.606 183.359,183.096 183.422 L 182.167 183.538 182.267 182.977 C 182.533 181.488,183.413 179.447,184.726 177.274 C 185.106 176.645,185.491 175.989,185.581 175.816 C 185.672 175.642,185.803 175.500,185.873 175.500 C 185.943 175.500,186.000 175.418,186.000 175.317 C 186.000 175.147,189.763 169.516,189.999 169.333 C 190.058 169.287,190.470 168.725,190.913 168.083 C 191.841 166.741,192.538 165.787,192.679 165.667 C 192.732 165.621,193.272 164.854,193.878 163.962 C 194.484 163.070,195.064 162.245,195.167 162.129 C 196.858 160.207,198.110 156.651,197.655 155.057 C 197.528 154.613,197.420 154.212,197.414 154.167 C 197.326 153.505,196.333 152.455,195.441 152.083 C 194.700 151.773,194.664 151.800,193.448 153.583 C 193.073 154.133,192.705 154.658,192.631 154.750 C 191.925 155.619,191.336 156.443,191.335 156.564 C 191.334 156.645,191.199 156.832,191.036 156.980 C 190.872 157.129,190.591 157.445,190.411 157.684 C 188.829 159.782,187.754 161.174,187.156 161.899 C 186.921 162.184,186.547 162.679,186.325 163.000 C 185.889 163.630,185.541 164.073,185.201 164.431 C 185.083 164.555,184.527 165.278,183.967 166.037 C 183.407 166.796,182.904 167.454,182.849 167.500 C 182.795 167.546,182.675 167.701,182.583 167.844 C 182.492 167.988,181.773 169.075,180.986 170.261 C 179.751 172.122,179.360 172.779,179.257 173.167 C 179.244 173.213,179.037 173.631,178.795 174.098 C 177.653 176.301,177.188 179.716,177.810 181.333 C 178.193 182.329,178.711 183.330,178.944 183.523 C 179.066 183.624,179.167 183.774,179.167 183.855 C 179.167 184.096,180.050 185.017,180.500 185.244 C 182.304 186.158,183.964 185.858,187.185 184.038 C 187.517 183.851,187.967 183.597,188.185 183.474 C 188.404 183.351,188.621 183.209,188.667 183.159 C 188.713 183.108,189.088 182.871,189.500 182.631 C 189.912 182.391,190.416 182.039,190.618 181.847 C 190.820 181.656,191.064 181.500,191.160 181.500 C 191.255 181.500,191.334 181.444,191.334 181.375 C 191.335 181.306,191.596 181.073,191.914 180.856 C 192.233 180.639,192.640 180.339,192.821 180.189 C 193.001 180.039,193.390 179.729,193.687 179.500 C 193.983 179.271,194.306 179.008,194.404 178.916 C 194.601 178.732,197.166 176.521,198.077 175.750 C 198.185 175.658,198.706 175.171,199.235 174.667 L 200.196 173.750 199.910 174.417 C 198.573 177.529,198.240 179.707,198.816 181.568 C 200.321 186.435,203.899 186.948,209.932 183.162 C 211.747 182.023,211.816 181.976,212.423 181.458 C 212.719 181.206,213.011 181.000,213.074 181.000 C 213.441 181.000,218.818 176.554,220.476 174.880 C 221.527 173.818,221.575 173.826,221.243 175.012 C 220.658 177.099,220.391 180.086,220.740 180.650 C 220.783 180.720,220.864 181.034,220.919 181.347 C 221.494 184.635,224.008 186.247,227.257 185.411 C 228.237 185.159,231.333 183.703,231.333 183.494 C 231.333 183.435,231.540 183.293,231.792 183.179 C 232.165 183.009,234.436 181.398,235.499 180.550 C 235.637 180.439,236.275 179.924,236.917 179.404 C 237.558 178.884,238.373 178.224,238.727 177.937 C 239.080 177.651,239.642 177.178,239.975 176.887 C 240.727 176.229,240.734 176.238,240.331 177.340 C 238.502 182.344,241.994 186.994,246.346 185.349 C 248.065 184.699,249.211 184.167,249.559 183.858 C 249.729 183.707,249.917 183.595,249.976 183.608 C 250.072 183.631,252.879 181.729,253.499 181.221 C 253.637 181.108,254.838 180.141,256.167 179.071 C 257.496 178.001,258.636 177.043,258.699 176.943 C 258.763 176.842,258.858 176.802,258.910 176.854 C 258.962 176.906,258.864 177.129,258.693 177.350 C 258.110 178.098,256.983 180.225,256.794 180.934 C 256.387 182.454,257.787 184.892,259.471 185.595 C 260.540 186.042,260.621 186.007,261.753 184.583 C 262.118 184.125,262.454 183.713,262.500 183.667 C 262.783 183.384,265.907 179.581,266.710 178.541 C 267.185 177.927,269.099 175.747,269.833 174.984 C 270.381 174.415,271.351 173.332,272.583 171.911 C 273.858 170.441,280.580 163.707,281.977 162.500 C 283.424 161.249,283.752 160.961,284.984 159.866 C 285.571 159.344,286.734 158.398,287.567 157.765 C 288.401 157.131,289.108 156.550,289.139 156.473 C 289.169 156.396,289.301 156.333,289.431 156.333 C 289.560 156.333,289.667 156.277,289.667 156.208 C 289.668 156.140,290.080 155.861,290.584 155.589 C 291.088 155.317,291.500 155.051,291.500 154.996 C 291.500 154.942,292.044 154.639,292.708 154.324 C 293.373 154.008,293.972 153.675,294.039 153.583 C 294.106 153.492,294.163 153.470,294.164 153.534 C 294.166 153.599,294.476 153.543,294.854 153.409 C 295.760 153.090,297.229 153.090,297.495 153.410 C 298.195 154.254,296.220 157.161,291.639 162.028 C 290.821 162.898,290.115 163.675,287.657 166.417 C 287.163 166.967,286.645 167.556,286.505 167.727 C 286.365 167.898,286.171 168.123,286.074 168.227 C 285.978 168.331,285.245 169.242,284.447 170.250 C 283.648 171.258,282.916 172.179,282.820 172.296 C 279.270 176.612,278.702 181.583,281.439 184.386 C 283.122 186.111,285.999 186.035,289.000 184.188 C 289.321 183.990,289.715 183.783,289.875 183.728 C 290.035 183.673,290.167 183.562,290.167 183.481 C 290.167 183.400,290.242 183.333,290.335 183.333 C 290.427 183.333,290.793 183.127,291.148 182.875 C 291.503 182.623,291.962 182.304,292.167 182.167 C 292.373 182.029,292.639 181.823,292.759 181.708 C 292.878 181.594,293.057 181.500,293.155 181.500 C 293.253 181.500,293.333 181.441,293.333 181.369 C 293.333 181.297,293.540 181.116,293.792 180.966 C 294.245 180.696,297.557 178.049,298.650 177.083 C 298.961 176.808,299.597 176.246,300.062 175.833 C 303.142 173.106,307.093 168.776,307.850 167.298 C 308.732 165.577,307.979 165.174,306.750 166.708 C 306.292 167.280,305.373 168.297,304.708 168.967 C 304.044 169.638,303.500 170.218,303.500 170.257 C 303.500 170.295,303.151 170.647,302.724 171.038 C 302.298 171.430,301.310 172.369,300.529 173.125 C 299.749 173.881,299.089 174.500,299.064 174.500 C 299.038 174.500,298.807 174.696,298.550 174.937 C 298.293 175.177,297.521 175.830,296.833 176.389 C 296.146 176.948,295.546 177.451,295.500 177.508 C 295.207 177.874,290.229 181.333,289.996 181.333 C 289.922 181.333,289.836 181.390,289.806 181.458 C 289.641 181.828,286.161 183.279,285.092 183.425 C 284.377 183.522,284.333 183.505,284.333 183.134 C 284.333 182.542,285.688 179.922,286.615 178.723 C 286.816 178.463,287.191 177.972,287.449 177.632 C 288.890 175.727,289.912 174.407,290.001 174.333 C 290.103 174.250,291.804 172.209,292.293 171.583 C 292.436 171.400,292.748 171.021,292.985 170.741 C 293.222 170.461,293.604 169.977,293.833 169.667 C 294.063 169.356,294.442 168.872,294.677 168.592 C 294.912 168.312,295.284 167.821,295.503 167.500 C 295.722 167.179,295.942 166.879,295.992 166.833 C 296.042 166.787,296.158 166.625,296.250 166.473 C 296.342 166.321,296.773 165.667,297.208 165.020 C 297.644 164.373,298.000 163.767,298.000 163.672 C 298.000 163.577,298.056 163.499,298.125 163.499 C 298.194 163.498,298.331 163.329,298.431 163.124 C 298.530 162.918,298.878 162.225,299.204 161.583 C 303.273 153.569,298.842 149.004,291.000 153.130 C 289.773 153.776,288.790 154.352,288.667 154.498 C 288.621 154.552,287.995 154.993,287.277 155.479 C 286.558 155.964,285.808 156.499,285.610 156.668 C 285.412 156.837,284.500 157.598,283.583 158.360 C 282.667 159.122,281.756 159.897,281.560 160.081 C 281.363 160.266,280.763 160.821,280.226 161.315 C 278.649 162.768,276.502 164.865,276.476 164.978 C 276.463 165.036,275.409 166.096,274.133 167.333 C 272.858 168.571,271.872 169.433,271.941 169.250 C 272.046 168.972,273.837 166.307,274.293 165.750 C 274.368 165.658,274.799 165.058,275.250 164.417 C 275.702 163.775,276.114 163.212,276.166 163.167 C 276.218 163.121,276.793 162.333,277.445 161.417 C 278.096 160.500,278.844 159.476,279.106 159.142 C 279.369 158.807,279.733 158.327,279.917 158.076 C 280.100 157.824,280.400 157.413,280.583 157.161 C 281.457 155.963,283.397 153.407,283.489 153.333 C 283.546 153.287,283.853 152.913,284.171 152.501 C 284.489 152.088,284.838 151.638,284.946 151.501 C 285.054 151.363,285.612 150.650,286.185 149.917 C 286.758 149.183,287.288 148.558,287.364 148.528 C 287.439 148.497,287.500 148.403,287.500 148.319 C 287.500 148.235,287.631 148.028,287.792 147.858 C 288.127 147.504,288.301 147.284,289.333 145.913 C 289.745 145.365,290.131 144.879,290.191 144.833 C 290.251 144.787,290.658 144.262,291.097 143.667 C 291.535 143.071,291.999 142.478,292.127 142.350 C 292.255 142.221,292.646 141.729,292.995 141.257 C 293.344 140.785,295.156 138.485,297.023 136.147 C 298.889 133.809,300.642 131.606,300.917 131.252 C 301.192 130.898,301.609 130.378,301.844 130.096 C 302.079 129.814,302.614 129.133,303.034 128.583 C 303.453 128.033,303.955 127.403,304.148 127.183 C 304.342 126.963,304.500 126.733,304.500 126.673 C 304.500 126.612,304.632 126.417,304.794 126.240 C 305.527 125.433,307.055 123.058,308.861 119.917 C 310.748 116.634,310.817 114.464,309.094 112.583 C 308.767 112.227,308.500 111.875,308.500 111.801 C 308.500 111.727,308.444 111.682,308.375 111.701 C 308.306 111.720,308.010 111.607,307.717 111.451 C 306.762 110.942,306.341 111.126,306.328 112.055 C 306.326 112.254,306.030 112.979,305.672 113.667 C 305.314 114.354,304.885 115.179,304.719 115.500 C 304.553 115.821,304.323 116.182,304.208 116.304 C 304.094 116.425,304.000 116.588,304.000 116.667 C 304.000 116.745,303.904 116.909,303.786 117.030 C 303.668 117.151,303.367 117.587,303.117 118.000 C 302.867 118.412,302.195 119.399,301.623 120.193 C 301.051 120.986,300.159 122.230,299.640 122.957 C 299.122 123.684,298.597 124.385,298.474 124.514 C 298.351 124.644,297.712 125.462,297.055 126.333 C 295.347 128.596,294.514 129.675,294.017 130.268 C 293.779 130.553,293.471 130.928,293.333 131.101 C 292.346 132.346,291.720 133.115,291.539 133.306 C 291.423 133.429,291.124 133.804,290.873 134.139 C 290.623 134.475,290.376 134.787,290.325 134.833 C 290.274 134.879,289.714 135.592,289.082 136.417 C 288.450 137.242,287.791 138.067,287.619 138.250 C 287.446 138.433,287.117 138.902,286.887 139.292 C 286.657 139.681,286.419 140.001,286.359 140.001 C 286.299 140.002,286.063 140.278,285.833 140.614 C 285.604 140.951,285.342 141.308,285.250 141.409 C 285.113 141.559,284.520 142.311,283.798 143.250 C 283.727 143.342,283.349 143.829,282.957 144.333 C 282.565 144.837,281.908 145.700,281.497 146.250 C 281.086 146.800,280.694 147.275,280.625 147.306 C 280.556 147.336,280.500 147.430,280.500 147.514 C 280.500 147.598,280.369 147.802,280.208 147.967 C 280.048 148.132,279.729 148.517,279.500 148.822 C 279.271 149.128,278.971 149.512,278.833 149.675 C 278.696 149.839,278.433 150.179,278.250 150.431 C 277.907 150.902,276.470 152.756,276.165 153.121 C 276.071 153.234,275.755 153.684,275.464 154.121 C 275.172 154.559,274.887 154.954,274.830 155.000 C 274.772 155.046,274.281 155.683,273.738 156.417 C 273.195 157.150,272.656 157.849,272.542 157.970 C 272.427 158.091,272.333 158.241,272.333 158.304 C 272.332 158.366,272.126 158.642,271.874 158.917 C 271.622 159.192,271.229 159.697,271.000 160.041 C 270.771 160.384,270.527 160.665,270.458 160.666 C 270.390 160.666,270.333 160.741,270.333 160.832 C 270.333 160.982,269.912 161.537,269.375 162.094 C 269.260 162.212,269.167 162.349,269.167 162.397 C 269.167 162.468,267.559 164.658,266.194 166.447 C 266.041 166.647,265.617 167.233,265.250 167.750 C 262.955 170.985,261.713 172.228,256.250 176.756 C 255.150 177.668,254.213 178.452,254.167 178.499 C 253.996 178.673,252.222 179.966,251.417 180.503 C 249.910 181.507,249.761 181.594,248.583 182.161 C 247.942 182.470,247.229 182.814,247.000 182.925 C 246.544 183.147,245.006 183.500,244.496 183.500 C 244.237 183.500,244.191 183.412,244.258 183.042 C 244.303 182.790,244.365 182.433,244.395 182.250 C 244.455 181.881,244.728 181.171,245.094 180.433 C 245.225 180.167,245.333 179.895,245.333 179.830 C 245.333 179.515,248.429 174.421,248.962 173.859 C 249.079 173.736,249.296 173.398,249.444 173.109 C 249.592 172.820,249.766 172.546,249.831 172.500 C 249.896 172.454,250.311 171.892,250.754 171.250 C 251.197 170.608,251.603 170.046,251.655 170.000 C 251.812 169.862,252.739 168.616,253.058 168.114 C 253.221 167.856,253.460 167.518,253.588 167.364 C 253.716 167.210,254.423 166.258,255.158 165.250 C 255.893 164.242,256.553 163.342,256.624 163.250 C 257.189 162.524,258.000 161.304,258.000 161.180 C 258.000 161.096,258.061 161.003,258.135 160.972 C 258.422 160.854,259.304 159.030,259.579 157.985 C 260.112 155.963,259.284 153.753,257.685 152.926 C 256.922 152.531,256.795 152.627,256.027 154.173 C 255.305 155.626,254.332 157.155,254.125 157.162 C 254.056 157.165,254.000 156.623,253.999 155.958 C 253.998 152.373,249.253 149.912,245.083 151.333 C 244.625 151.489,244.141 151.647,244.008 151.683 C 243.494 151.825,239.574 153.879,239.400 154.097 C 239.299 154.224,239.179 154.290,239.132 154.243 C 239.086 154.197,238.953 154.273,238.837 154.413 C 238.721 154.552,238.553 154.667,238.464 154.667 C 237.639 154.667,231.899 159.564,229.184 162.583 C 228.690 163.133,228.046 163.846,227.754 164.167 C 227.135 164.846,225.370 167.133,224.434 168.469 C 223.483 169.826,221.375 172.033,220.083 173.024 C 219.808 173.235,219.396 173.598,219.167 173.831 C 218.818 174.185,216.179 176.459,215.106 177.331 C 214.936 177.470,214.711 177.662,214.606 177.758 C 214.111 178.213,211.817 179.833,211.668 179.833 C 211.576 179.833,211.500 179.903,211.500 179.989 C 211.500 180.074,211.350 180.192,211.168 180.250 C 210.985 180.308,210.733 180.457,210.608 180.582 C 209.204 181.987,203.167 184.152,203.167 183.252 C 203.167 182.303,204.452 179.446,206.121 176.687 C 206.696 175.736,207.167 174.932,207.167 174.901 C 207.167 174.839,208.993 172.015,209.204 171.750 C 209.277 171.658,209.790 170.908,210.343 170.083 C 211.237 168.750,212.413 167.041,213.095 166.083 C 213.500 165.514,215.901 162.259,216.046 162.083 C 216.121 161.992,216.483 161.504,216.850 161.000 C 217.218 160.496,217.609 159.971,217.720 159.833 C 217.831 159.696,218.183 159.208,218.503 158.750 C 218.822 158.292,219.125 157.879,219.175 157.833 C 219.226 157.787,219.489 157.450,219.759 157.083 C 220.029 156.717,220.686 155.854,221.220 155.167 C 221.754 154.479,222.279 153.803,222.387 153.663 C 222.495 153.524,222.917 152.962,223.325 152.413 C 223.734 151.865,224.146 151.331,224.242 151.227 C 224.338 151.122,224.567 150.827,224.750 150.571 C 224.933 150.314,225.261 149.891,225.479 149.629 C 225.697 149.367,226.580 148.200,227.443 147.035 C 228.306 145.870,229.103 144.802,229.214 144.662 C 229.326 144.522,229.792 143.897,230.250 143.274 C 230.708 142.650,231.497 141.602,232.002 140.945 C 232.508 140.288,233.057 139.539,233.222 139.281 C 233.387 139.023,233.630 138.685,233.761 138.531 C 233.996 138.256,237.091 134.139,237.750 133.226 C 237.933 132.972,238.426 132.311,238.844 131.757 C 239.262 131.203,240.333 129.662,241.222 128.333 C 242.112 127.004,242.914 125.826,243.004 125.715 C 243.093 125.605,243.167 125.472,243.167 125.420 C 243.167 125.369,243.358 125.023,243.592 124.652 C 245.563 121.530,247.167 117.660,247.167 116.024 C 247.167 114.183,245.905 112.146,244.289 111.379 C 243.548 111.027,243.499 111.024,243.348 111.306 M207.185 113.059 C 211.860 114.277,211.712 118.710,206.923 120.904 C 205.033 121.770,203.566 122.081,200.167 122.339 C 197.088 122.572,191.844 122.177,190.452 121.607 L 189.987 121.417 191.387 120.047 C 192.158 119.293,192.748 118.637,192.700 118.588 C 192.651 118.540,192.702 118.500,192.813 118.500 C 192.923 118.500,193.180 118.342,193.382 118.150 C 193.584 117.957,194.012 117.601,194.333 117.359 C 194.654 117.117,194.954 116.874,195.000 116.820 C 195.288 116.478,197.787 114.778,198.833 114.212 C 201.505 112.765,204.480 112.355,207.185 113.059 M205.583 137.067 C 202.740 138.946,201.950 142.822,204.205 143.832 C 207.231 145.187,211.083 140.767,209.600 137.641 C 208.987 136.350,207.081 136.078,205.583 137.067 M184.203 150.042 C 185.042 150.521,185.562 152.069,185.000 152.417 C 184.908 152.473,184.833 152.665,184.833 152.843 C 184.833 153.021,184.777 153.167,184.707 153.167 C 184.638 153.167,184.488 153.373,184.375 153.625 C 183.775 154.957,179.911 156.321,176.708 156.330 C 175.665 156.333,175.480 156.215,175.882 155.804 C 176.000 155.682,176.225 155.396,176.382 155.167 C 178.567 151.975,182.767 149.222,184.203 150.042 M251.954 154.813 C 253.141 157.650,250.139 162.843,242.170 171.739 C 240.447 173.663,237.529 176.333,235.236 178.083 C 234.327 178.777,233.440 179.464,233.265 179.610 C 231.006 181.493,226.335 183.726,225.371 183.384 C 224.215 182.975,224.290 181.289,225.575 178.833 C 225.790 178.421,226.243 177.558,226.580 176.917 C 227.149 175.836,229.317 172.502,229.734 172.068 C 230.238 171.543,230.667 170.981,230.667 170.846 C 230.667 170.763,230.723 170.669,230.792 170.639 C 230.860 170.608,231.254 170.171,231.667 169.667 C 234.003 166.814,236.592 164.108,239.370 161.618 C 241.081 160.083,241.171 160.007,242.833 158.689 C 245.350 156.693,247.819 155.220,250.316 154.224 C 251.061 153.927,251.676 154.148,251.954 154.813 M151.000 156.249 C 152.438 156.395,152.442 156.404,151.655 157.376 C 151.265 157.856,150.827 158.365,150.682 158.505 C 150.316 158.857,148.860 160.592,148.167 161.500 C 147.853 161.912,147.443 162.407,147.256 162.599 C 147.069 162.790,146.392 163.534,145.750 164.251 C 142.022 168.417,136.551 173.684,133.917 175.643 C 133.550 175.916,132.875 176.439,132.417 176.805 C 128.056 180.292,121.151 183.978,116.750 185.169 C 116.475 185.244,115.800 185.432,115.250 185.587 C 114.700 185.742,114.025 185.897,113.750 185.931 C 113.475 185.964,112.950 186.064,112.583 186.152 C 110.153 186.738,105.205 186.741,102.833 186.158 C 100.129 185.493,97.994 184.568,96.512 183.417 C 95.713 182.795,93.843 180.786,93.932 180.642 C 93.980 180.564,93.951 180.500,93.868 180.500 C 93.549 180.500,92.476 177.808,92.094 176.050 C 91.746 174.450,91.765 173.476,92.183 171.539 C 92.528 169.938,93.592 167.167,93.861 167.167 C 93.938 167.167,94.000 167.083,94.000 166.981 C 94.000 166.809,94.793 165.650,95.583 164.669 C 97.218 162.637,100.152 160.181,101.866 159.409 C 102.169 159.273,102.529 159.097,102.667 159.017 C 105.223 157.535,110.665 156.951,112.769 157.931 C 114.110 158.556,115.562 161.050,114.844 161.493 C 113.184 162.520,111.049 165.021,110.520 166.559 C 110.130 167.694,111.304 170.160,112.304 170.304 C 112.956 170.398,116.000 168.178,116.000 167.609 C 116.000 167.541,116.139 167.337,116.309 167.154 C 116.919 166.499,117.497 164.661,117.553 163.199 C 117.600 161.969,117.647 161.795,118.004 161.545 C 118.532 161.175,120.919 160.157,122.583 159.592 C 123.317 159.343,124.067 159.078,124.250 159.003 C 124.847 158.759,127.562 158.008,129.000 157.687 C 129.412 157.596,130.125 157.435,130.583 157.331 C 131.042 157.226,131.659 157.110,131.955 157.072 C 132.251 157.034,132.814 156.935,133.205 156.853 C 133.873 156.712,135.274 156.530,138.417 156.176 C 139.772 156.024,149.326 156.079,151.000 156.249 " stroke="none" fill="#c49c3b" fill-rule="evenodd"></path><path id="path1" d="M0.000 141.417 L 0.000 282.833 200.000 282.833 L 400.000 282.833 400.000 141.417 L 400.000 0.000 200.000 0.000 L 0.000 0.000 0.000 141.417 M399.667 141.417 L 399.667 282.500 200.000 282.500 L 0.333 282.500 0.333 141.417 L 0.333 0.333 200.000 0.333 L 399.667 0.333 399.667 141.417 " stroke="none" fill="#343434" fill-rule="evenodd"></path><path id="path2" d="" stroke="none" fill="#c4a43b" fill-rule="evenodd"></path><path id="path3" d="M141.542 106.953 C 141.794 106.991,142.206 106.991,142.458 106.953 C 142.710 106.915,142.504 106.883,142.000 106.883 C 141.496 106.883,141.290 106.915,141.542 106.953 " stroke="none" fill="#a0a038" fill-rule="evenodd"></path><path id="path4" d="M141.542 106.953 C 141.794 106.991,142.206 106.991,142.458 106.953 C 142.710 106.915,142.504 106.883,142.000 106.883 C 141.496 106.883,141.290 106.915,141.542 106.953 " stroke="none" fill="#a0a038" fill-rule="evenodd"></path></g></svg>